<svg width="228" height="228" viewBox="0 0 228 228" fill="none" xmlns="http://www.w3.org/2000/svg">
<path d="M111.315 126.391L107.012 123.919V111.487L111.315 113.978V126.391Z" stroke="#FF2756" stroke-width="2"/>
<path d="M143.534 87.5147V92.2927L132.568 98.6676V93.817L143.534 87.5147Z" stroke="#FF2756" stroke-width="2"/>
<path d="M127.426 101.659L116.46 108.034V103.073L127.426 96.7688V101.659Z" stroke="#FF2756" stroke-width="2"/>
<path d="M108.736 101.589L104.441 104.056L93.4476 97.6909L97.7057 95.247L108.736 101.589Z" stroke="#FF2756" stroke-width="2"/>
<path d="M124.845 92.3301L113.893 98.6234L61.2451 68.3697L72.2041 62.07L124.845 92.3301Z" stroke="#FF2756" stroke-width="2"/>
<path d="M46.8901 70.6985L36.0425 64.4105L111.349 21.1336L111.439 33.6028L46.8901 70.6985Z" stroke="#FF2756" stroke-width="2"/>
<path d="M101.867 168.878L90.9502 162.609V102.173L101.867 108.502V168.878Z" stroke="#FF2756" stroke-width="2"/>
<path d="M81.6602 86.0253L92.5481 92.2829L88.3174 94.7146L77.4819 88.4326L81.6602 86.0253Z" stroke="#FF2756" stroke-width="2"/>
<path d="M185.15 63.4837V150.297L174.255 144.035V69.8464L185.15 63.4837Z" stroke="#FF2756" stroke-width="2"/>
<path d="M111.314 192.826L35.8004 149.427L46.7586 143.134L111.314 180.233V192.826Z" stroke="#FF2756" stroke-width="2"/>
<path d="M111.315 144.987L107.012 142.51V129.846L111.315 132.318V144.987Z" stroke="#FF2756" stroke-width="2"/>
<path d="M206.555 93.2081V80.5448L226.644 68.9918V81.6615L206.555 93.2081Z" stroke="#FF2756" stroke-width="2"/>
<path d="M206.555 74.6153V54.4569L224.073 64.5511L206.555 74.6153Z" stroke="#FF2756" stroke-width="2"/>
<path d="M17.1035 30.4094L34.952 40.6684L17.1035 50.9274V30.4094Z" stroke="#FF2756" stroke-width="2"/>
<path d="M33.2207 144.989V106.028L44.1794 112.331V138.686L33.2207 144.989Z" stroke="#FF2756" stroke-width="2"/>
<path d="M17.1035 96.768L28.0693 103.066V147.948L17.1035 154.246V96.768Z" stroke="#FF2756" stroke-width="2"/>
<path d="M132.568 220.602V141.651L143.534 135.347V214.304L132.568 220.602Z" stroke="#FF2756" stroke-width="2"/>
<mask id="path-18-inside-1_3467_52039" fill="white">
<path d="M128.424 142.876L115.458 150.33V197.268C115.458 197.268 115.444 197.331 115.437 197.359C115.437 197.465 115.402 197.563 115.374 197.668C115.345 197.773 115.324 197.872 115.275 197.963C115.261 197.991 115.261 198.026 115.247 198.054C115.183 198.166 115.099 198.265 115.014 198.356C115.007 198.363 115 198.37 114.993 198.384C114.866 198.51 114.711 198.602 114.556 198.679C114.513 198.7 114.471 198.714 114.429 198.728C114.26 198.791 114.076 198.833 113.893 198.833C113.71 198.833 113.533 198.791 113.357 198.728C113.308 198.714 113.266 198.693 113.223 198.672C113.188 198.651 113.146 198.644 113.11 198.623L30.6484 151.235L17.6826 158.689L128.431 222.33V142.876H128.424Z"/>
</mask>
<path d="M128.424 142.876V140.876H127.89L127.427 141.143L128.424 142.876ZM115.458 150.33L114.461 148.596L113.458 149.173V150.33H115.458ZM115.458 197.268L117.41 197.704L117.458 197.489V197.268H115.458ZM115.437 197.359L113.497 196.872L113.437 197.112V197.359H115.437ZM115.275 197.963L113.516 197.011L113.501 197.038L113.488 197.065L115.275 197.963ZM115.247 198.054L116.988 199.038L117.012 198.996L117.034 198.952L115.247 198.054ZM115.014 198.356L116.425 199.773L116.453 199.745L116.481 199.716L115.014 198.356ZM114.993 198.384L116.404 199.801L116.634 199.572L116.78 199.282L114.993 198.384ZM114.556 198.679L113.665 196.888L114.556 198.679ZM114.429 198.728L113.799 196.83L113.764 196.841L113.729 196.854L114.429 198.728ZM113.357 198.728L114.032 196.845L113.969 196.823L113.904 196.804L113.357 198.728ZM113.223 198.672L112.198 200.389L112.263 200.428L112.332 200.462L113.223 198.672ZM113.11 198.623L114.136 196.906L114.121 196.897L114.107 196.889L113.11 198.623ZM30.6484 151.235L31.6449 149.501L30.6482 148.928L29.6516 149.501L30.6484 151.235ZM17.6826 158.689L16.6859 156.955L13.669 158.689L16.6861 160.423L17.6826 158.689ZM128.431 222.33L127.435 224.064L130.431 225.786V222.33H128.431ZM128.431 142.876H130.431V140.876H128.431V142.876ZM127.427 141.143L114.461 148.596L116.455 152.064L129.421 144.61L127.427 141.143ZM113.458 150.33V197.268H117.458V150.33H113.458ZM115.458 197.268C113.506 196.832 113.506 196.832 113.506 196.832C113.506 196.832 113.506 196.832 113.506 196.832C113.506 196.832 113.506 196.832 113.506 196.832C113.506 196.832 113.506 196.832 113.506 196.832C113.506 196.832 113.506 196.832 113.506 196.832C113.506 196.832 113.506 196.832 113.506 196.832C113.506 196.833 113.506 196.833 113.506 196.834C113.506 196.835 113.505 196.837 113.505 196.839C113.504 196.844 113.502 196.851 113.5 196.858C113.496 196.879 113.495 196.882 113.497 196.872L117.377 197.847C117.386 197.809 117.396 197.766 117.4 197.748C117.403 197.736 117.405 197.725 117.407 197.718C117.408 197.714 117.409 197.711 117.409 197.708C117.409 197.707 117.41 197.706 117.41 197.705C117.41 197.705 117.41 197.705 117.41 197.704C117.41 197.704 117.41 197.704 117.41 197.704C117.41 197.704 117.41 197.704 117.41 197.704C117.41 197.704 117.41 197.704 117.41 197.704C117.41 197.704 117.41 197.704 117.41 197.704C117.41 197.704 117.41 197.704 115.458 197.268ZM113.437 197.359C113.437 197.191 113.465 197.071 113.472 197.042C113.476 197.029 113.477 197.024 113.471 197.045C113.468 197.056 113.454 197.106 113.442 197.151L117.305 198.186C117.308 198.178 117.308 198.176 117.32 198.135C117.328 198.106 117.344 198.05 117.36 197.985C117.391 197.855 117.437 197.633 117.437 197.359H113.437ZM113.442 197.151C113.436 197.171 113.432 197.189 113.428 197.203C113.424 197.218 113.422 197.226 113.42 197.235C113.415 197.252 113.416 197.249 113.419 197.238C113.426 197.214 113.455 197.125 113.516 197.011L117.034 198.914C117.145 198.71 117.208 198.526 117.245 198.404C117.264 198.344 117.278 198.291 117.287 198.256C117.301 198.203 117.298 198.215 117.305 198.186L113.442 197.151ZM113.488 197.065C113.449 197.143 113.419 197.215 113.396 197.276C113.373 197.337 113.356 197.391 113.344 197.433C113.332 197.475 113.324 197.51 113.318 197.532C113.313 197.553 113.309 197.571 113.309 197.573C113.307 197.579 113.31 197.568 113.313 197.556C113.316 197.541 113.323 197.514 113.333 197.48C113.343 197.446 113.357 197.4 113.377 197.346C113.397 197.292 113.424 197.227 113.459 197.156L117.034 198.952C117.073 198.874 117.103 198.802 117.126 198.741C117.149 198.68 117.165 198.626 117.177 198.584C117.189 198.542 117.198 198.507 117.203 198.485C117.208 198.464 117.212 198.446 117.213 198.444C117.214 198.438 117.212 198.449 117.209 198.462C117.205 198.476 117.199 198.503 117.189 198.537C117.179 198.571 117.165 198.617 117.145 198.671C117.125 198.725 117.098 198.79 117.062 198.861L113.488 197.065ZM113.505 197.07C113.537 197.014 113.564 196.979 113.571 196.97C113.578 196.962 113.575 196.967 113.548 196.996L116.481 199.716C116.587 199.601 116.804 199.363 116.988 199.038L113.505 197.07ZM113.603 196.938C113.554 196.987 113.361 197.177 113.206 197.486L116.78 199.282C116.72 199.401 116.647 199.515 116.563 199.62C116.487 199.713 116.416 199.782 116.425 199.773L113.603 196.938ZM113.582 196.967C113.636 196.913 113.679 196.883 113.693 196.874C113.706 196.866 113.702 196.87 113.665 196.888L115.447 200.469C115.671 200.358 116.051 200.153 116.404 199.801L113.582 196.967ZM113.665 196.888C113.723 196.859 113.769 196.841 113.793 196.832C113.812 196.825 113.826 196.821 113.799 196.83L115.059 200.626C115.084 200.618 115.259 200.563 115.447 200.469L113.665 196.888ZM113.729 196.854C113.73 196.854 113.732 196.853 113.738 196.851C113.743 196.85 113.752 196.848 113.765 196.845C113.789 196.84 113.832 196.833 113.893 196.833V200.833C114.375 200.833 114.799 200.725 115.128 200.602L113.729 196.854ZM113.893 196.833C114.018 196.833 114.081 196.863 114.032 196.845L112.682 200.611C112.986 200.719 113.401 200.833 113.893 200.833V196.833ZM113.904 196.804C113.989 196.828 114.053 196.854 114.09 196.871C114.12 196.884 114.142 196.895 114.114 196.881L112.332 200.462C112.356 200.474 112.556 200.58 112.81 200.652L113.904 196.804ZM114.249 196.955C114.132 196.885 114.031 196.839 113.965 196.812C113.931 196.798 113.903 196.787 113.884 196.78C113.866 196.773 113.85 196.768 113.847 196.766C113.84 196.764 113.847 196.766 113.855 196.769C113.864 196.773 113.883 196.78 113.907 196.79C113.954 196.81 114.037 196.847 114.136 196.906L112.085 200.34C112.201 200.409 112.303 200.455 112.369 200.482C112.402 200.496 112.431 200.507 112.45 200.514C112.467 200.521 112.483 200.527 112.486 200.528C112.493 200.53 112.487 200.528 112.479 200.525C112.469 200.522 112.451 200.514 112.427 200.504C112.38 200.485 112.296 200.448 112.198 200.389L114.249 196.955ZM114.107 196.889L31.6449 149.501L29.6519 152.969L112.114 200.357L114.107 196.889ZM29.6516 149.501L16.6859 156.955L18.6794 160.423L31.6451 152.969L29.6516 149.501ZM16.6861 160.423L127.435 224.064L129.427 220.596L18.6791 156.955L16.6861 160.423ZM130.431 222.33V142.876H126.431V222.33H130.431ZM128.431 140.876H128.424V144.876H128.431V140.876Z" fill="#FF2756" mask="url(#path-18-inside-1_3467_52039)"/>
<path d="M85.8046 225.916L74.8389 219.613V196.309L85.8046 202.607V225.916Z" stroke="#FF2756" stroke-width="2"/>
<path d="M90.9502 205.568L108.651 215.742L90.9502 225.917V205.568Z" stroke="#FF2756" stroke-width="2"/>
<path d="M148.688 174.221V161.622L171.617 148.441L182.576 154.741L148.688 174.221Z" stroke="#FF2756" stroke-width="2"/>
<path d="M189.564 156.537C189.562 156.539 189.56 156.541 189.558 156.543L189.564 156.537ZM189.564 156.537C189.559 156.543 189.556 156.545 189.558 156.543L189.564 156.537ZM135.128 73.7987L201.404 35.8042V162.449L148.678 192.749V180.156L188.767 157.108H188.927L189.156 156.88C189.282 156.796 189.414 156.694 189.537 156.571L189.652 156.457L189.677 156.407C189.687 156.395 189.694 156.384 189.7 156.376L189.708 156.365C189.711 156.361 189.714 156.357 189.716 156.354C189.744 156.32 189.775 156.28 189.809 156.233C189.814 156.228 189.819 156.222 189.823 156.217C189.848 156.187 189.899 156.125 189.949 156.042L189.969 156.009L189.986 155.974C190.027 155.894 190.049 155.824 190.062 155.779C190.062 155.778 190.063 155.778 190.063 155.777C190.088 155.719 190.12 155.643 190.147 155.562L190.151 155.548L190.156 155.533L190.159 155.523C190.178 155.459 190.212 155.349 190.235 155.231C190.236 155.228 190.237 155.224 190.238 155.218C190.246 155.18 190.265 155.088 190.276 154.976L190.277 154.969L190.279 154.961L190.28 154.958L190.28 154.958L190.28 154.957L190.28 154.957L190.278 154.957L190.28 154.957L190.304 154.85V154.739V58.9961C190.304 58.8859 190.287 58.7953 190.272 58.7335C190.272 58.7312 190.271 58.7288 190.271 58.7265C190.25 58.5656 190.212 58.4258 190.192 58.3539C190.189 58.345 190.187 58.3371 190.185 58.3303C190.185 58.3268 190.183 58.3211 190.181 58.3135C190.166 58.2528 190.122 58.0699 190.036 57.8895C190.024 57.8533 190.005 57.8061 189.979 57.7542L189.958 57.7117L189.932 57.6713C189.854 57.5459 189.768 57.4594 189.73 57.4215L189.709 57.401C189.662 57.3428 189.54 57.1915 189.394 57.067C189.248 56.9392 189.09 56.8486 189.017 56.8063C189.015 56.8051 189.013 56.8039 189.011 56.8028C188.874 56.7195 188.73 56.6473 188.56 56.5871C188.367 56.5184 188.176 56.4917 188.077 56.4787L188.071 56.4772L188.07 56.477C188.022 56.4648 187.89 56.431 187.725 56.431C187.616 56.431 187.526 56.4475 187.464 56.4624C187.461 56.4631 187.458 56.4638 187.456 56.4645C187.295 56.4851 187.156 56.5238 187.091 56.542C187.081 56.5448 187.073 56.547 187.066 56.5487L187.058 56.551L187.049 56.5534C187.044 56.555 187.037 56.5568 187.029 56.559C186.96 56.578 186.802 56.6217 186.639 56.6969L186.566 56.7131L186.431 56.7921L170.39 66.158L170.384 66.1615L146.113 80.1117L135.128 73.7987Z" stroke="#FF2756" stroke-width="2"/>
<path d="M116.466 144.982V132.319L130.3 124.368C130.961 124.283 131.583 123.938 132.009 123.385L169.114 102.057V114.724L116.466 144.982Z" stroke="#FF2756" stroke-width="2"/>
<path d="M85.8046 159.65L74.8389 153.352V92.8391L85.8046 99.1963V159.65Z" stroke="#FF2756" stroke-width="2"/>
<path d="M139.541 46.7891L116.58 33.5919L116.491 21.0223L150.424 40.5251L139.541 46.7891Z" stroke="#FF2756" stroke-width="2"/>
<path d="M112.578 66.7621L113.495 67.2891L113.501 67.2765L140.964 83.062L130.006 89.3625L77.3635 59.1086L88.3151 52.8155L112.578 66.7621Z" stroke="#FF2756" stroke-width="2"/>
<path d="M169.108 96.1412L116.46 126.399V113.978L169.108 83.3618V96.1412Z" stroke="#FF2756" stroke-width="2"/>
<path d="M69.6929 102.472L3.70395 64.5538L41.34 42.9144C41.3648 42.901 41.3841 42.8896 41.3876 42.8876L41.4079 42.8756L41.4089 42.875L57.432 33.6688C57.459 33.6555 57.4797 33.644 57.491 33.6375C57.5025 33.631 57.5128 33.6249 57.5214 33.6197L114.017 1.1537L166.401 31.3293L155.58 37.5592L115.433 14.4889L115.424 14.4838L115.415 14.4788C114.99 14.2465 114.554 14.1711 114.159 14.1757C114.091 14.1608 113.997 14.1454 113.891 14.1454H113.877C113.768 14.1454 113.677 14.1619 113.613 14.1776C113.608 14.1788 113.603 14.1801 113.598 14.1813C113.44 14.2033 113.304 14.2425 113.232 14.263L113.226 14.2649C113.222 14.2659 113.217 14.2671 113.211 14.2685C113.147 14.2843 112.987 14.3239 112.821 14.3951L112.724 14.4193L112.603 14.489L30.4551 61.7024C30.3709 61.7155 30.3062 61.7339 30.273 61.7439C30.166 61.7585 29.9935 61.7853 29.8108 61.8503C29.6444 61.9095 29.4918 61.9933 29.4222 62.0315C29.4126 62.0368 29.4047 62.0412 29.3984 62.0445L29.3834 62.0525L29.3687 62.0611C29.2632 62.1224 29.1351 62.2015 28.9996 62.3119L28.9996 62.3119L28.9927 62.3176C28.8411 62.4434 28.7262 62.5787 28.6456 62.6826C28.6285 62.6992 28.6018 62.7257 28.5733 62.7573C28.5395 62.7947 28.4974 62.8454 28.4552 62.909C28.3702 63.0348 28.3289 63.1532 28.3111 63.212C28.255 63.3513 28.2178 63.4809 28.1943 63.563L28.1905 63.5764L28.1881 63.5849L28.1858 63.5935C28.1827 63.6049 28.1799 63.6149 28.1756 63.6301C28.1734 63.6377 28.1709 63.6465 28.1678 63.6575C28.1599 63.6852 28.1485 63.726 28.1376 63.771C28.122 63.8354 28.1036 63.9231 28.0943 64.0272L28.093 64.0328L28.0916 64.0395L28.0912 64.0411L28.0911 64.0415L28.0671 64.1491V64.2593V64.5611C28.0671 64.6791 28.087 64.7746 28.1023 64.833C28.1232 64.9857 28.1606 65.1213 28.1794 65.1895C28.1819 65.1985 28.184 65.2064 28.1858 65.2129C28.1867 65.2165 28.1881 65.2222 28.19 65.2298C28.2034 65.2846 28.2412 65.4385 28.3109 65.6004C28.324 65.6451 28.3466 65.7126 28.385 65.7891L28.396 65.8109L28.408 65.8321C28.5126 66.0173 28.6371 66.1665 28.7308 66.2703C28.7735 66.3255 28.8098 66.3617 28.8257 66.3775L28.8269 66.3787L28.8365 66.3882L28.8463 66.3975C29.0746 66.6128 29.3157 66.7571 29.5406 66.8648C29.6388 66.9127 29.7305 66.9438 29.7736 66.9581C29.9692 67.0295 30.1973 67.0894 30.4456 67.1108L44.8759 75.4763C45.2283 75.8556 45.6811 76.1147 46.1767 76.2284L69.6929 89.8558V102.472ZM30.9574 61.732C30.9604 61.7329 30.9615 61.7332 30.9587 61.7324L30.9574 61.732ZM28.2969 63.2626C28.2968 63.263 28.2968 63.2629 28.2969 63.2625L28.2969 63.2626ZM28.1352 64.9383C28.1353 64.9387 28.1353 64.9386 28.1351 64.938L28.1352 64.9383Z" stroke="#FF2756" stroke-width="2"/>
<path d="M69.6948 121.063L1.00411 81.5928L1.09358 68.9764L69.6948 108.4V121.063Z" stroke="#FF2756" stroke-width="2"/>
<path d="M172.804 33.5715L172.812 33.5674L172.819 33.5633L172.847 33.5464L187.725 24.9803L198.816 31.3561L186.677 38.3164C186.618 38.3458 186.572 38.3735 186.545 38.3906L186.522 38.405L186.509 38.4128C186.509 38.4132 186.508 38.4135 186.508 38.4138L129.968 70.8261L119.008 64.5318L172.804 33.5715Z" stroke="#FF2756" stroke-width="2"/>
<path d="M19.6894 25.9661L30.6415 19.6728L51.0687 31.4055L40.1101 37.705L19.6894 25.9661Z" stroke="#FF2756" stroke-width="2"/>
</svg>
